<?xml version="1.0" encoding="UTF-8" standalone="no"?>
<!DOCTYPE svg PUBLIC "-//W3C//DTD SVG 1.1//EN" "http://www.w3.org/Graphics/SVG/1.1/DTD/svg11.dtd">
<svg width="100%" height="100%" viewBox="0 0 376 377" version="1.1" xmlns="http://www.w3.org/2000/svg" xmlns:xlink="http://www.w3.org/1999/xlink" xml:space="preserve" xmlns:serif="http://www.serif.com/" style="fill-rule:evenodd;clip-rule:evenodd;stroke-linecap:square;stroke-linejoin:round;stroke-miterlimit:1.5;">
    <g transform="matrix(1,0,0,1,-5366,-2011)">
        <g transform="matrix(2.38461,0,0,1.82578,-6329.29,227)">
            <g transform="matrix(0.419355,0,0,0.54771,2672.61,-108.048)">
                <path d="M5431.89,2041.68L5637.91,2041.68L5637.91,2247.84" style="fill:none;stroke:black;stroke-opacity:0.2;stroke-width:45.83px;"/>
            </g>
            <g transform="matrix(0.419355,0,0,0.54771,2436.09,-145.519)">
                <path d="M5946.27,2050.36C5913.3,2050.36 5886.54,2077.13 5886.54,2110.1C5886.54,2143.06 5913.3,2169.83 5946.27,2169.83C5979.24,2169.83 6006.01,2143.06 6006.01,2110.1C6006.01,2077.13 5979.24,2050.36 5946.27,2050.36ZM5946.27,2085.78C5959.69,2085.78 5970.59,2096.67 5970.59,2110.1C5970.59,2123.52 5959.69,2134.41 5946.27,2134.41C5932.85,2134.41 5921.95,2123.52 5921.95,2110.1C5921.95,2096.67 5932.85,2085.78 5946.27,2085.78Z"/>
            </g>
            <g transform="matrix(0.419355,0,0,0.54771,2543.3,-5.03294)">
                <path d="M5946.27,2050.36C5913.3,2050.36 5886.54,2077.13 5886.54,2110.1C5886.54,2143.06 5913.3,2169.83 5946.27,2169.83C5979.24,2169.83 6006.01,2143.06 6006.01,2110.1C6006.01,2077.13 5979.24,2050.36 5946.27,2050.36ZM5946.27,2085.78C5959.69,2085.78 5970.59,2096.67 5970.59,2110.1C5970.59,2123.52 5959.69,2134.41 5946.27,2134.41C5932.85,2134.41 5921.95,2123.52 5921.95,2110.1C5921.95,2096.67 5932.85,2085.78 5946.27,2085.78Z"/>
            </g>
            <g transform="matrix(0.419355,-4.25656e-16,-3.25904e-16,0.54771,2654.22,-124.33)">
                <path d="M5450.44,2095.73L5657.44,2303.59" style="fill:none;stroke:black;stroke-width:45.83px;stroke-linecap:butt;stroke-linejoin:bevel;"/>
            </g>
        </g>
    </g>
</svg>
