<?xml version="1.0" encoding="UTF-8" standalone="no"?>
<!DOCTYPE svg PUBLIC "-//W3C//DTD SVG 1.1//EN" "http://www.w3.org/Graphics/SVG/1.1/DTD/svg11.dtd">
<svg width="100%" height="100%" viewBox="0 0 449 385" version="1.1" xmlns="http://www.w3.org/2000/svg" xmlns:xlink="http://www.w3.org/1999/xlink" xml:space="preserve" xmlns:serif="http://www.serif.com/" style="fill-rule:evenodd;clip-rule:evenodd;stroke-linejoin:round;stroke-miterlimit:2;">
    <g transform="matrix(1,0,0,1,-3833,-1198)">
        <g transform="matrix(2.38461,0,0,1.82578,-6329.29,227)">
            <g transform="matrix(2.56781e-17,0.54771,-0.419355,3.35376e-17,4476.4,496.961)">
                <path d="M128,63.4C92.9,63.4 64,92.3 64,127.4C64,155 82,178.5 106.7,187.4L106.7,388C82,396.9 64,420.4 64,448C64,483.1 92.9,512 128,512C163.1,512 192,483.1 192,448C192,420.9 174.6,398 150.7,388.7C153.8,362.4 164,349.5 180,338.7C199.2,325.8 228.6,318.1 260.7,310.7C292.8,303.3 327.2,295.6 356,275.4C381.3,257.6 400.5,228.6 404.7,188.1C429.7,179.3 448,155.8 448,128.1C448,93 419.1,64.1 384,64.1C348.9,64.1 320,93 320,128.1C320,155.4 337.8,178.3 362,187.4C359.1,215.4 348.2,229.3 332,240.7C312.8,254.1 283.2,262 251.3,269.4C219.4,276.7 184.8,283.2 156,302.7C153.7,304.3 151.5,306.3 149.3,308L149.3,187.4C174,178.5 192,155 192,127.4C192,92.3 163.1,63.4 128,63.4ZM128,106.1C140,106.1 149.3,115.4 149.3,127.4C149.3,139.4 140,148.7 128,148.7C116,148.7 106.7,139.4 106.7,127.4C106.7,115.4 116,106.1 128,106.1ZM384,106.7C396,106.7 405.3,116 405.3,128C405.3,140 396,149.3 384,149.3C372,149.3 362.7,140 362.7,128C362.7,116 372,106.7 384,106.7ZM128,426.7C140,426.7 149.3,436 149.3,448C149.3,460 140,469.3 128,469.3C116,469.3 106.7,460 106.7,448C106.7,436 116,426.7 128,426.7Z" style="fill-rule:nonzero;"/>
            </g>
        </g>
    </g>
</svg>
