<?xml version="1.0" encoding="UTF-8" standalone="no"?>
<!DOCTYPE svg PUBLIC "-//W3C//DTD SVG 1.1//EN" "http://www.w3.org/Graphics/SVG/1.1/DTD/svg11.dtd">
<svg width="100%" height="100%" viewBox="0 0 389 368" version="1.1" xmlns="http://www.w3.org/2000/svg" xmlns:xlink="http://www.w3.org/1999/xlink" xml:space="preserve" xmlns:serif="http://www.serif.com/" style="fill-rule:evenodd;clip-rule:evenodd;stroke-linejoin:bevel;stroke-miterlimit:1.5;">
    <g transform="matrix(1,0,0,1,-5608,-3641)">
        <g id="Artboard1" transform="matrix(2.6436,0,0,3.65236,-5556.31,295.649)">
            <rect x="3676.61" y="0" width="1566.51" height="1275.88" style="fill:none;"/>
            <g>
                <g transform="matrix(0.378272,0,0,0.273795,2453.38,343.74)">
                    <rect x="4907.58" y="2172.45" width="44.84" height="188.584" style="fill:rgb(230,230,230);"/>
                </g>
                <g transform="matrix(0.378272,0,0,-0.273795,2381.23,1589.4)">
                    <path d="M4930,2339.53C4958.28,2339.53 4980.56,2358.21 4986.76,2373.87L5143.3,2373.87L5143.3,2418.71L4986.76,2418.71C4977.82,2441.31 4955.76,2457.31 4930,2457.31C4896.32,2457.31 4868.98,2429.97 4868.98,2396.29C4868.98,2360.82 4901.71,2339.53 4930,2339.53ZM4930,2373.39C4943.42,2373.39 4954.32,2384.29 4954.32,2397.71C4954.32,2411.13 4943.42,2422.03 4930,2422.03C4916.57,2422.03 4905.68,2411.13 4905.68,2397.71C4905.68,2384.29 4916.57,2373.39 4930,2373.39Z" style="fill:rgb(230,230,230);"/>
                </g>
                <g transform="matrix(0.378272,0,0,0.273795,1997.08,421.97)">
                    <path d="M5946.27,2050.36C5913.3,2050.36 5886.54,2077.13 5886.54,2110.1C5886.54,2143.06 5913.3,2169.83 5946.27,2169.83C5979.24,2169.83 6006.01,2143.06 6006.01,2110.1C6006.01,2077.13 5979.24,2050.36 5946.27,2050.36ZM5946.27,2085.78C5959.69,2085.78 5970.59,2096.67 5970.59,2110.1C5970.59,2123.52 5959.69,2134.41 5946.27,2134.41C5932.85,2134.41 5921.95,2123.52 5921.95,2110.1C5921.95,2096.67 5932.85,2085.78 5946.27,2085.78Z"/>
                </g>
                <g transform="matrix(0.378272,0,0,0.273795,2069.97,422.203)">
                    <path d="M5946.27,2050.36C5913.3,2050.36 5886.54,2077.13 5886.54,2110.1C5886.54,2143.06 5913.3,2169.83 5946.27,2169.83C5979.24,2169.83 6006.01,2143.06 6006.01,2110.1C6006.01,2077.13 5979.24,2050.36 5946.27,2050.36ZM5946.27,2085.78C5959.69,2085.78 5970.59,2096.67 5970.59,2110.1C5970.59,2123.52 5959.69,2134.41 5946.27,2134.41C5932.85,2134.41 5921.95,2123.52 5921.95,2110.1C5921.95,2096.67 5932.85,2085.78 5946.27,2085.78Z"/>
                </g>
                <g transform="matrix(0.266087,-0.00039807,-0.000549968,0.273793,2808.87,434.744)">
                    <path d="M5472.14,2071.41L5645.63,2072.26" style="fill:none;stroke:black;stroke-width:53.1px;"/>
                </g>
                <g transform="matrix(0.504454,0,0,0.375423,1919,156.796)">
                    <path d="M4859.47,2244.82C4859.47,2235.6 4851.77,2228.11 4842.29,2228.11L4792.68,2228.11L4792.68,2261.52L4842.29,2261.52C4851.77,2261.52 4859.47,2254.04 4859.47,2244.82Z"/>
                </g>
            </g>
        </g>
    </g>
</svg>
