<?xml version="1.0" encoding="UTF-8" standalone="no"?>
<!DOCTYPE svg PUBLIC "-//W3C//DTD SVG 1.1//EN" "http://www.w3.org/Graphics/SVG/1.1/DTD/svg11.dtd">
<svg width="100%" height="100%" viewBox="0 0 389 369" version="1.1" xmlns="http://www.w3.org/2000/svg" xmlns:xlink="http://www.w3.org/1999/xlink" xml:space="preserve" xmlns:serif="http://www.serif.com/" style="fill-rule:evenodd;clip-rule:evenodd;stroke-linejoin:bevel;stroke-miterlimit:1.5;">
    <g transform="matrix(1,0,0,1,-4661,-2089)">
        <g transform="matrix(2.38461,0,0,1.82578,-6329.29,227)">
            <g transform="matrix(0.419355,0,0,0.54771,2140.56,-102.847)">
                <path d="M5946.27,2050.36C5913.3,2050.36 5886.54,2077.13 5886.54,2110.1C5886.54,2143.06 5913.3,2169.83 5946.27,2169.83C5979.24,2169.83 6006.01,2143.06 6006.01,2110.1C6006.01,2077.13 5979.24,2050.36 5946.27,2050.36ZM5946.27,2085.78C5959.69,2085.78 5970.59,2096.67 5970.59,2110.1C5970.59,2123.52 5959.69,2134.41 5946.27,2134.41C5932.85,2134.41 5921.95,2123.52 5921.95,2110.1C5921.95,2096.67 5932.85,2085.78 5946.27,2085.78Z"/>
            </g>
            <g transform="matrix(0.419355,0,0,0.54771,2221.36,-102.381)">
                <path d="M5946.27,2050.36C5913.3,2050.36 5886.54,2077.13 5886.54,2110.1C5886.54,2143.06 5913.3,2169.83 5946.27,2169.83C5979.24,2169.83 6006.01,2143.06 6006.01,2110.1C6006.01,2077.13 5979.24,2050.36 5946.27,2050.36ZM5946.27,2085.78C5959.69,2085.78 5970.59,2096.67 5970.59,2110.1C5970.59,2123.52 5959.69,2134.41 5946.27,2134.41C5932.85,2134.41 5921.95,2123.52 5921.95,2110.1C5921.95,2096.67 5932.85,2085.78 5946.27,2085.78Z"/>
            </g>
            <g transform="matrix(0.419355,0,0,0.54771,2647.54,-124.33)">
                <path d="M4952.42,2339.53C4968.07,2345.72 4980.56,2358.21 4986.76,2373.87L5042.65,2373.87C5055.03,2373.87 5065.07,2383.92 5065.07,2396.29C5065.07,2408.66 5055.03,2418.71 5042.65,2418.71L4986.76,2418.71C4977.82,2441.31 4955.76,2457.31 4930,2457.31C4896.32,2457.31 4868.98,2429.97 4868.98,2396.29C4868.98,2370.53 4884.98,2348.47 4907.58,2339.53L4907.58,2193.56L4952.42,2193.56L4952.42,2339.53ZM4930,2373.39C4943.42,2373.39 4954.32,2384.29 4954.32,2397.71C4954.32,2411.13 4943.42,2422.03 4930,2422.03C4916.57,2422.03 4905.68,2411.13 4905.68,2397.71C4905.68,2384.29 4916.57,2373.39 4930,2373.39Z" style="fill-opacity:0.2;"/>
            </g>
            <g transform="matrix(0.294985,-0.000796314,-0.000609699,0.547706,3040.52,-77.2928)">
                <path d="M5472.14,2071.41L5645.63,2072.26" style="fill:none;stroke:black;stroke-width:53.1px;"/>
            </g>
            <g transform="matrix(0.559241,0,0,0.751009,2053.99,-633.311)">
                <path d="M4859.47,2244.82C4859.47,2235.6 4851.77,2228.11 4842.29,2228.11L4792.68,2228.11L4792.68,2261.52L4842.29,2261.52C4851.77,2261.52 4859.47,2254.04 4859.47,2244.82Z"/>
            </g>
        </g>
    </g>
</svg>
