<?xml version="1.0" encoding="UTF-8" standalone="no"?>
<!DOCTYPE svg PUBLIC "-//W3C//DTD SVG 1.1//EN" "http://www.w3.org/Graphics/SVG/1.1/DTD/svg11.dtd">
<svg width="100%" height="100%" viewBox="0 0 497 497" version="1.1" xmlns="http://www.w3.org/2000/svg" xmlns:xlink="http://www.w3.org/1999/xlink" xml:space="preserve" xmlns:serif="http://www.serif.com/" style="fill-rule:evenodd;clip-rule:evenodd;stroke-linejoin:round;stroke-miterlimit:2;">
    <g transform="matrix(1,0,0,1,-7164,-3762)">
        <g transform="matrix(2.6436,0,0,3.65236,-5556.31,295.649)">
            <g transform="matrix(0.378272,0,0,0.273795,2101.8,-80.9473)">
                <path d="M7412.21,3762.73C7549.09,3762.73 7660.21,3873.86 7660.21,4010.73C7660.21,4147.61 7549.09,4258.73 7412.21,4258.73C7275.34,4258.73 7164.21,4147.61 7164.21,4010.73C7164.21,3873.86 7275.34,3762.73 7412.21,3762.73ZM7401.13,4163.11L7464.28,4163.11L7464.28,3858.35L7400.92,3858.35L7322.15,3913.05L7322.15,3969.65L7399.86,3916.86L7401.13,3916.86L7401.13,4163.11Z"/>
            </g>
        </g>
    </g>
</svg>
