<?xml version="1.0" encoding="UTF-8" standalone="no"?>
<!DOCTYPE svg PUBLIC "-//W3C//DTD SVG 1.1//EN" "http://www.w3.org/Graphics/SVG/1.1/DTD/svg11.dtd">
<svg width="100%" height="100%" viewBox="0 0 400 400" version="1.1" xmlns="http://www.w3.org/2000/svg" xmlns:xlink="http://www.w3.org/1999/xlink" xml:space="preserve" xmlns:serif="http://www.serif.com/" style="fill-rule:evenodd;clip-rule:evenodd;stroke-linecap:round;stroke-linejoin:bevel;stroke-miterlimit:1.5;">
    <g transform="matrix(1,0,0,1,-4958,-3031)">
        <g id="Artboard1" transform="matrix(2.35635,0,0,2.83439,-6225.36,227)">
            <rect x="3676.61" y="0" width="1566.51" height="1275.88" style="fill:none;"/>
            <g transform="matrix(0.367132,-0.476908,0.368667,0.474923,1980.53,2664.12)">
                <path d="M5450.44,2095.73L5657.44,2303.59" style="fill:none;stroke:black;stroke-width:27.19px;"/>
            </g>
            <g transform="matrix(1.2305,0,0,1.02297,-2431.82,-1143.82)">
                <path d="M5946.27,2085.78C5959.69,2085.78 5970.59,2096.67 5970.59,2110.1C5970.59,2123.52 5959.69,2134.41 5946.27,2134.41C5932.85,2134.41 5921.95,2123.52 5921.95,2110.1C5921.95,2096.67 5932.85,2085.78 5946.27,2085.78ZM5946.27,2100.15C5951.76,2100.15 5956.22,2104.6 5956.22,2110.1C5956.22,2115.59 5951.76,2120.04 5946.27,2120.04C5940.78,2120.04 5936.32,2115.59 5936.32,2110.1C5936.32,2104.6 5940.78,2100.15 5946.27,2100.15Z"/>
            </g>
            <g transform="matrix(1.2305,0,0,1.02297,-2486.35,-1053.19)">
                <path d="M5946.27,2085.78C5959.69,2085.78 5970.59,2096.67 5970.59,2110.1C5970.59,2123.52 5959.69,2134.41 5946.27,2134.41C5932.85,2134.41 5921.95,2123.52 5921.95,2110.1C5921.95,2096.67 5932.85,2085.78 5946.27,2085.78ZM5946.27,2100.15C5951.76,2100.15 5956.22,2104.6 5956.22,2110.1C5956.22,2115.59 5951.76,2120.04 5946.27,2120.04C5940.78,2120.04 5936.32,2115.59 5936.32,2110.1C5936.32,2104.6 5940.78,2100.15 5946.27,2100.15Z"/>
            </g>
            <g transform="matrix(1.2305,0,0,1.02297,-2540.88,-1143.82)">
                <path d="M5946.27,2085.78C5959.69,2085.78 5970.59,2096.67 5970.59,2110.1C5970.59,2123.52 5959.69,2134.41 5946.27,2134.41C5932.85,2134.41 5921.95,2123.52 5921.95,2110.1C5921.95,2096.67 5932.85,2085.78 5946.27,2085.78ZM5946.27,2100.15C5951.76,2100.15 5956.22,2104.6 5956.22,2110.1C5956.22,2115.59 5951.76,2120.04 5946.27,2120.04C5940.78,2120.04 5936.32,2115.59 5936.32,2110.1C5936.32,2104.6 5940.78,2100.15 5946.27,2100.15Z"/>
            </g>
        </g>
    </g>
</svg>
