<?xml version="1.0" encoding="UTF-8" standalone="no"?>
<!DOCTYPE svg PUBLIC "-//W3C//DTD SVG 1.1//EN" "http://www.w3.org/Graphics/SVG/1.1/DTD/svg11.dtd">
<svg width="100%" height="100%" viewBox="0 0 512 512" version="1.1" xmlns="http://www.w3.org/2000/svg" xmlns:xlink="http://www.w3.org/1999/xlink" xml:space="preserve" xmlns:serif="http://www.serif.com/" style="fill-rule:evenodd;clip-rule:evenodd;stroke-linejoin:round;stroke-miterlimit:2;">
    <path d="M466.27,286.69C475.04,271.84 480,256 480,236.85C480,192.835 442.782,151.27 394.18,151.27L357.7,151.27C362.62,138.46 366.55,123.14 366.55,104.73C366.55,31.936 328.86,0 271.28,0C209.673,0 213.187,94.933 199.52,108.6C176.773,131.347 149.905,175.047 130.76,192L32,192C14.327,192 0,206.327 0,224L0,464C0,481.673 14.327,496 32,496L96,496C110.893,496 123.408,485.826 126.978,472.05C171.487,473.051 202.038,511.99 304.78,511.99C312,511.99 320,512 327,512C404.117,512 438.986,472.577 439.94,416.67C453.259,398.245 460.239,373.548 457.28,349.68C467.134,331.228 470.944,309.337 466.27,286.69ZM404.52,340.52C417.08,361.65 405.78,389.93 390.58,398.09C398.28,446.87 372.972,463.99 337.46,463.99L299.64,463.99C228.001,463.99 181.611,426.17 128,426.17L128,240L138.92,240C167.28,240 206.9,169.11 233.46,142.54C261.82,114.18 252.37,66.91 271.28,48C318.55,48 318.55,80.98 318.55,104.73C318.55,143.9 290.19,161.45 290.19,199.27L394.18,199.27C415.29,199.27 431.91,218.18 432,237.09C432.09,255.99 419.18,274.9 409.73,274.9C423.219,289.455 426.101,320.136 404.52,340.52Z" style="fill-rule:nonzero;"/>
</svg>
