<?xml version="1.0" encoding="UTF-8" standalone="no"?>
<!DOCTYPE svg PUBLIC "-//W3C//DTD SVG 1.1//EN" "http://www.w3.org/Graphics/SVG/1.1/DTD/svg11.dtd">
<svg width="100%" height="100%" viewBox="0 0 497 497" version="1.1" xmlns="http://www.w3.org/2000/svg" xmlns:xlink="http://www.w3.org/1999/xlink" xml:space="preserve" xmlns:serif="http://www.serif.com/" style="fill-rule:evenodd;clip-rule:evenodd;stroke-linejoin:round;stroke-miterlimit:2;">
    <g transform="matrix(1,0,0,1,-7727,-3762)">
        <g transform="matrix(2.6436,0,0,3.65236,-5556.31,295.649)">
            <g transform="matrix(0.378272,0,0,0.273795,2100.16,-80.9473)">
                <path d="M7979.79,3762.73C8116.67,3762.73 8227.79,3873.86 8227.79,4010.73C8227.79,4147.61 8116.67,4258.73 7979.79,4258.73C7842.92,4258.73 7731.79,4147.61 7731.79,4010.73C7731.79,3873.86 7842.92,3762.73 7979.79,3762.73ZM7870.82,4165.75L8092.36,4165.75L8092.36,4115.06L7954.24,4115.06L7954.24,4112.53L8018.02,4054.24C8070.61,4005.87 8088.14,3981.8 8088.14,3944.84L8088.14,3944.42C8088.14,3892.46 8043.78,3855.71 7979.37,3855.71C7914.95,3855.71 7867.23,3896.05 7867.23,3953.5L7867.23,3955.19L7926.36,3955.19L7926.57,3953.29C7927.42,3925.83 7948.53,3905.35 7979.79,3905.35C8006.82,3905.35 8025.83,3923.09 8026.04,3948.01L8026.04,3948.43C8026.04,3969.55 8017.81,3984.54 7978.53,4021.29L7870.82,4122.03L7870.82,4165.75Z"/>
            </g>
        </g>
    </g>
</svg>
